<?xml version="1.0" encoding="UTF-8" standalone="no"?>
<!-- Logo 15 — Bracket / Code: curly braces framing the node mesh -->
<svg viewBox="0 0 380 220" width="380" height="220" version="1.1"
     xmlns="http://www.w3.org/2000/svg">

  <!-- Left curly brace -->
  <path d="M 50,30 Q 38,30 38,50 L 38,90 Q 38,110 26,110 Q 38,110 38,130 L 38,170 Q 38,190 50,190"
        fill="none" stroke="#484f58" stroke-width="2" stroke-linecap="round" />

  <!-- Right curly brace -->
  <path d="M 330,30 Q 342,30 342,50 L 342,90 Q 342,110 354,110 Q 342,110 342,130 L 342,170 Q 342,190 330,190"
        fill="none" stroke="#484f58" stroke-width="2" stroke-linecap="round" />

  <!-- Connection lines -->
  <!-- MCP ↔ Claude -->
  <line x1="190" y1="70"  x2="110" y2="140" stroke="#30363d" stroke-width="1.5" />
  <!-- MCP ↔ Gemini -->
  <line x1="190" y1="70"  x2="270" y2="140" stroke="#30363d" stroke-width="1.5" />
  <!-- MCP ↔ Codex -->
  <line x1="190" y1="70"  x2="190" y2="160" stroke="#30363d" stroke-width="1.5" />
  <!-- Claude ↔ Gemini -->
  <line x1="110" y1="140" x2="270" y2="140" stroke="#21262d" stroke-width="1" stroke-dasharray="4,3" />
  <!-- Claude ↔ Codex -->
  <line x1="110" y1="140" x2="190" y2="160" stroke="#21262d" stroke-width="1" stroke-dasharray="4,3" />
  <!-- Gemini ↔ Codex -->
  <line x1="270" y1="140" x2="190" y2="160" stroke="#21262d" stroke-width="1" stroke-dasharray="4,3" />

  <!-- Data indicator dots -->
  <circle cx="150" cy="105" r="2" fill="#58a6ff" opacity="0.6" />
  <circle cx="230" cy="105" r="2" fill="#58a6ff" opacity="0.6" />
  <circle cx="190" cy="115" r="2" fill="#58a6ff" opacity="0.4" />

  <!-- MCP node — top centre -->
  <circle cx="190" cy="70" r="40"
          fill="#161b22" stroke="#58a6ff" stroke-width="2.5" />
  <g transform="matrix(1.6,0,0,1.6,170.8,50.8)" fill="none">
    <path d="M 3.49994,11.7501 11.6717,3.57855 c 1.1045,-1.10457 2.8955,-1.10457 4,0 1.1045,1.10457 1.1045,2.89543 0,4 m 0,0 -6.17176,6.17155 M 15.6717,7.57855 c 1.1045,-1.10457 2.8955,-1.10457 4,0 1.1045,1.10457 1.1045,2.89545 0,3.99995 l -6.9645,6.9645 c -0.3905,0.3905 -0.3905,1.0237 0,1.4142 l 1.2927,1.2927"
          stroke="#58a6ff" stroke-width="1.5" stroke-linecap="round" stroke-linejoin="round" />
    <path d="M 17.4999,9.74921 11.3282,15.921 c -1.1045,1.1045 -2.89548,1.1045 -3.99997,0 -1.1045,-1.1046 -1.1045,-2.8955 0,-4 L 13.4999,5.74939"
          stroke="#58a6ff" stroke-width="1.5" stroke-linecap="round" stroke-linejoin="round" />
  </g>

  <!-- Claude — bottom-left -->
  <circle cx="110" cy="140" r="28"
          fill="#161b22" stroke="#d97757" stroke-width="1.5" />
  <g transform="translate(100.5,130.5) scale(0.8)" fill="#d97757">
    <path d="m 17.3041,3.541 h -3.6718 l 6.696,16.918 H 24 Z M 6.6959,3.541 0,20.459 h 3.7442 l 1.3693,-3.5527 h 7.0052 l 1.3693,3.5528 h 3.7442 L 10.5363,3.5409 Z m -0.3712,10.2232 2.2914,-5.9456 2.2914,5.9456 z" />
  </g>

  <!-- Gemini — bottom-right -->
  <circle cx="270" cy="140" r="28"
          fill="#161b22" stroke="#886fbf" stroke-width="1.5" />
  <g transform="translate(260.5,130.5) scale(0.8)" fill="#886fbf">
    <path d="M 11.04,19.32 Q 12,21.51 12,24 q 0,-2.49 0.93,-4.68 0.96,-2.19 2.58,-3.81 1.62,-1.62 3.81,-2.55 Q 21.51,12 24,12 21.51,12 19.32,11.07 A 12.3,12.3 0 0 1 15.51,8.49 12.3,12.3 0 0 1 12.93,4.68 Q 12,2.49 12,0 12,2.49 11.04,4.68 10.11,6.87 8.49,8.49 A 12.3,12.3 0 0 1 4.68,11.07 Q 2.49,12 0,12 q 2.49,0 4.68,0.96 2.19,0.93 3.81,2.55 1.62,1.62 2.55,3.81" />
  </g>

  <!-- Codex — bottom centre -->
  <circle cx="190" cy="160" r="28"
          fill="#161b22" stroke="#412991" stroke-width="1.5" />
  <g transform="translate(180.5,150.5) scale(0.8)" fill="#ffffff">
    <path d="m 22.2819,9.8211 a 5.9847,5.9847 0 0 0 -0.5157,-4.9108 6.0462,6.0462 0 0 0 -6.5098,-2.9 6.0651,6.0651 0 0 0 -10.2757,2.1715 5.9847,5.9847 0 0 0 -3.9977,2.9 6.0462,6.0462 0 0 0 0.7427,7.0966 5.98,5.98 0 0 0 0.511,4.9107 6.051,6.051 0 0 0 6.5146,2.9001 5.9847,5.9847 0 0 0 4.5086,2.0108 6.0557,6.0557 0 0 0 5.7718,-4.2058 5.9894,5.9894 0 0 0 3.9977,-2.9001 6.0557,6.0557 0 0 0 -0.7475,-7.0729 z m -9.022,12.6081 a 4.4755,4.4755 0 0 1 -2.8764,-1.0408 l 0.1419,-0.0804 4.7783,-2.7582 a 0.7948,0.7948 0 0 0 0.3927,-0.6813 v -6.7369 l 2.02,1.1686 a 0.071,0.071 0 0 1 0.038,0.052 v 5.5826 a 4.504,4.504 0 0 1 -4.4945,4.4944 z M 3.5992,18.3038 A 4.4708,4.4708 0 0 1 3.0646,15.2901 l 0.142,0.0852 4.783,2.7582 a 0.7712,0.7712 0 0 0 0.7806,0 L 14.613,14.765 v 2.3324 a 0.0804,0.0804 0 0 1 -0.0332,0.0615 L 9.74,19.9502 A 4.4992,4.4992 0 0 1 3.5992,18.3038 Z M 2.3408,7.8956 A 4.485,4.485 0 0 1 4.7063,5.9228 V 11.6 a 0.7664,0.7664 0 0 0 0.3879,0.6765 l 5.8144,3.3543 -2.0201,1.1685 a 0.0757,0.0757 0 0 1 -0.071,0 L 3.9872,14.0128 A 4.504,4.504 0 0 1 2.3408,7.872 Z M 18.9371,11.7514 13.1038,8.364 15.1192,7.2 a 0.0757,0.0757 0 0 1 0.071,0 l 4.8303,2.7913 a 4.4944,4.4944 0 0 1 -0.6765,8.1042 v -5.6772 a 0.79,0.79 0 0 0 -0.407,-0.667 z M 20.9478,8.7283 20.8058,8.6431 16.0323,5.8613 a 0.7759,0.7759 0 0 0 -0.7854,0 L 9.409,9.2297 V 6.8974 A 0.0662,0.0662 0 0 1 9.4374,6.8359 l 4.8303,-2.7866 a 4.4992,4.4992 0 0 1 6.6802,4.66 z M 8.3065,12.863 6.2865,11.6992 A 0.0804,0.0804 0 0 1 6.2485,11.6425 V 6.0742 A 4.4992,4.4992 0 0 1 13.6242,2.6205 L 13.4822,2.701 8.704,5.459 a 0.7948,0.7948 0 0 0 -0.3927,0.6813 Z m 1.0976,-2.3654 2.602,-1.4998 2.6069,1.4998 V 13.497 L 12.0156,14.9967 9.4089,13.497 Z" />
  </g>

  <!-- Decorative code tokens floating near braces -->
  <text x="58" y="60"  font-family="monospace" font-size="10" fill="#484f58" opacity="0.35">fn</text>
  <text x="58" y="170" font-family="monospace" font-size="10" fill="#484f58" opacity="0.35">;</text>
  <text x="316" y="60"  font-family="monospace" font-size="10" fill="#484f58" opacity="0.35">=&gt;</text>
  <text x="320" y="170" font-family="monospace" font-size="10" fill="#484f58" opacity="0.35">()</text>
</svg>
